<svg width="21" height="24" viewBox="0 0 21 24" fill="none" xmlns="http://www.w3.org/2000/svg">
<path d="M5.83637 8.57261C5.83637 9.78627 6.6487 10.8638 7.81225 11.1959L7.96991 11.2413V12.1373L7.69997 12.0704C6.08724 11.6738 4.96191 10.2355 4.96191 8.57261C4.96191 6.90968 6.08724 5.47376 7.69997 5.07716L7.96991 5.01025V5.90383L7.81225 5.94922C6.6487 6.28132 5.83637 7.36125 5.83637 8.57261Z" fill="url(#paint0_linear_126_159286)"/>
<path d="M7.48774 8.57235C7.48774 8.89973 7.63348 9.2055 7.89148 9.41341L7.97276 9.47788V10.467L7.65019 10.295C7.01229 9.95574 6.61328 9.29395 6.61328 8.56999C6.61328 7.84602 7.0099 7.18663 7.65019 6.84737L7.97276 6.67773V7.66446L7.89148 7.729C7.63587 7.93447 7.48774 8.24268 7.48774 8.56762V8.57235Z" fill="url(#paint1_linear_126_159286)"/>
<path d="M4.24565 8.57257C4.24565 10.6631 5.73652 12.4503 7.79122 12.8229C7.92742 12.8468 8.06598 12.8659 8.20698 12.8779C8.39091 12.8922 8.55819 12.8947 8.73021 12.8899C8.86403 12.8851 9.00022 12.8731 9.14352 12.854L9.39199 12.8229V13.7022L9.20088 13.7261C9.05033 13.7452 8.89749 13.7572 8.74212 13.7619C8.68239 13.7619 8.6251 13.7643 8.56537 13.7643C8.42681 13.7643 8.2978 13.7596 8.17352 13.75C8.02297 13.738 7.86768 13.7213 7.71721 13.695C5.20134 13.2793 3.37598 11.1266 3.37598 8.57257C3.37598 6.01848 5.20373 3.8658 7.71958 3.45007C7.87013 3.42618 8.02297 3.40707 8.17589 3.39512C8.35035 3.38079 8.54628 3.37601 8.74212 3.38317C8.89504 3.38795 9.04796 3.3999 9.20088 3.41901L9.39199 3.4453V4.32452L9.14352 4.29347C8.99778 4.27435 8.86159 4.26241 8.72784 4.25763C8.56537 4.25285 8.39091 4.25524 8.20935 4.26957C8.06842 4.27913 7.92742 4.29825 7.79367 4.32452C5.73891 4.69725 4.24804 6.48438 4.24804 8.57257H4.24565Z" fill="url(#paint2_linear_126_159286)"/>
<path d="M2.53949 8.57221C2.53949 11.5898 4.79252 14.1582 7.78146 14.5476C7.91284 14.5667 8.0514 14.5787 8.20432 14.5883C8.33333 14.5978 8.4528 14.6002 8.56745 14.6002H8.7371C8.85893 14.5954 8.99512 14.5883 9.15285 14.5715C9.32487 14.5548 9.5017 14.5285 9.67845 14.4974C9.82182 14.4688 9.96275 14.4377 10.0966 14.4019L10.3737 14.3254V15.2333L10.2089 15.2763C10.0584 15.3121 9.90546 15.3456 9.75491 15.372C9.56617 15.4053 9.37742 15.4316 9.19105 15.4483C9.03576 15.4603 8.88528 15.4699 8.73954 15.4722C8.68455 15.4746 8.62481 15.4746 8.56508 15.4746C8.42652 15.4746 8.29988 15.4722 8.17568 15.4651C8.02513 15.4555 7.87221 15.4412 7.72647 15.4245C4.26928 15.004 1.66504 12.0605 1.66504 8.57457C1.66504 5.08873 4.26928 2.14761 7.72647 1.7271C7.87221 1.71038 8.02513 1.69604 8.17568 1.68649C8.34769 1.67693 8.54117 1.66976 8.74428 1.67932C8.88284 1.6817 9.03102 1.69126 9.18868 1.7056C9.37261 1.72232 9.5638 1.74621 9.75254 1.78205C9.90302 1.80594 10.0559 1.83939 10.2041 1.87762L10.369 1.91824V2.82136L10.0942 2.74968C9.95564 2.71384 9.81464 2.6804 9.67371 2.65411C9.49689 2.62066 9.31769 2.59677 9.14804 2.57766C9.01185 2.56571 8.87092 2.55616 8.72518 2.55138H8.56271C8.44562 2.55138 8.32615 2.55377 8.19951 2.56093C8.04422 2.57049 7.90803 2.58244 7.78146 2.60155C4.79013 2.991 2.53471 5.55702 2.53471 8.57457L2.53949 8.57221Z" fill="url(#paint3_linear_126_159286)"/>
<path d="M7.77692 0.917291C7.90593 0.905344 8.04686 0.893398 8.20215 0.886225C8.32405 0.881451 8.44589 0.87667 8.56772 0.87667C8.62027 0.87667 8.67282 0.87667 8.735 0.879061C8.87119 0.879061 9.01212 0.888616 9.15786 0.900563C9.33705 0.912509 9.51625 0.93162 9.68827 0.960295C9.81728 0.977015 9.9511 1.00091 10.1111 1.03197C10.2975 1.0702 10.4839 1.11559 10.6679 1.16816C10.804 1.20639 10.9402 1.24939 11.0907 1.30195L11.3822 1.40469V0.477673L11.2317 0.427498C11.0955 0.382103 10.9497 0.339098 10.7825 0.293703C10.5914 0.243529 10.3955 0.198134 10.1972 0.159908C10.0418 0.128848 9.89137 0.102563 9.748 0.0858384C9.57362 0.0595571 9.38487 0.0404433 9.1865 0.026108C9.02167 0.0141619 8.87593 0.00699516 8.74691 0.00460594C8.55817 -0.00495092 8.36461 0.00221775 8.18305 0.00938541C8.03258 0.0141638 7.88202 0.026111 7.73392 0.0404463C5.62661 0.24353 3.67701 1.22311 2.24109 2.79521C0.795611 4.37687 0 6.42682 0 8.56757C0 10.7083 0.795611 12.7583 2.24109 14.3423C3.67701 15.9144 5.62661 16.8916 7.73392 17.0971C7.88202 17.1137 8.03258 17.1234 8.18305 17.1281C8.3097 17.1329 8.43871 17.1377 8.56772 17.1377C8.62745 17.1377 8.68955 17.1377 8.73973 17.1353C8.87593 17.1353 9.02403 17.1281 9.18895 17.1162C9.38724 17.1018 9.57598 17.0804 9.748 17.0565C9.89374 17.0374 10.0443 17.0135 10.1972 16.9824C10.3955 16.9442 10.5938 16.8987 10.7825 16.8462C10.9497 16.8008 11.0979 16.7578 11.2317 16.7124L11.3822 16.6622V15.7352L11.0907 15.8379C10.9474 15.8881 10.804 15.9335 10.6654 15.9717C10.4862 16.0243 10.2999 16.0697 10.1136 16.1079C9.95828 16.139 9.81965 16.1628 9.68827 16.182C9.51862 16.2083 9.33942 16.2274 9.15786 16.2418C9.01212 16.2537 8.87119 16.2585 8.72782 16.2608C8.67764 16.2632 8.62982 16.2632 8.57971 16.2632C8.45307 16.2632 8.32879 16.2608 8.20459 16.2537C8.05167 16.2465 7.91311 16.2369 7.77929 16.2226C3.84186 15.8188 0.874455 12.5265 0.874455 8.5652C0.874455 4.60385 3.84425 1.3139 7.77929 0.910118L7.77692 0.917291ZM9.18895 16.6837C9.18895 16.6837 9.16741 16.6837 9.15786 16.6861H9.14113C9.15786 16.6861 9.17222 16.6861 9.19131 16.6837H9.18895Z" fill="url(#paint4_linear_126_159286)"/>
<path d="M15.5793 14.6502C15.5793 16.3107 14.454 17.749 12.8412 18.148L12.5713 18.2149V17.3189L12.7289 17.2735C13.8925 16.9414 14.7048 15.8615 14.7048 14.6502C14.7048 13.4388 13.8925 12.3589 12.7289 12.0268L12.5713 11.9814V11.0854L12.8412 11.1524C14.454 11.5489 15.5793 12.9872 15.5793 14.6502Z" fill="url(#paint5_linear_126_159286)"/>
<path d="M13.9283 14.6501C13.9283 15.374 13.5317 16.0358 12.8914 16.3751L12.5713 16.5448V15.558L12.6525 15.4935C12.9081 15.288 13.0562 14.9798 13.0562 14.6525C13.0562 14.3252 12.9105 14.0194 12.6525 13.8115L12.5713 13.747V12.7603L12.8914 12.9299C13.5317 13.2691 13.9283 13.9334 13.9283 14.6549V14.6501Z" fill="url(#paint6_linear_126_159286)"/>
<path d="M17.1708 14.6503C17.1708 17.2043 15.343 19.357 12.8248 19.7727C12.6767 19.7966 12.5214 19.8158 12.3684 19.8277C12.2466 19.8373 12.1176 19.8444 11.979 19.8444C11.9192 19.8444 11.8619 19.8444 11.8022 19.8396C11.6469 19.8349 11.494 19.8229 11.3435 19.8038L11.1547 19.7799V18.9007L11.4008 18.9342C11.5466 18.9533 11.6828 18.9652 11.8189 18.97C11.9814 18.9747 12.1558 18.97 12.3374 18.958C12.4807 18.9461 12.6193 18.9294 12.7531 18.9031C14.8078 18.5303 16.2987 16.7432 16.2987 14.6526C16.2987 12.5621 14.8078 10.7773 12.7531 10.4046C12.6169 10.3807 12.4784 10.3616 12.3374 10.3497C12.151 10.3354 11.9861 10.3329 11.8141 10.3377C11.6803 10.3425 11.5441 10.3545 11.3984 10.3736L11.1523 10.407V9.52776L11.3411 9.50393C11.4916 9.48239 11.6469 9.47284 11.7998 9.46803C12.0005 9.4633 12.1916 9.46566 12.3708 9.48002C12.5214 9.48957 12.6767 9.50867 12.8271 9.53494C15.343 9.9507 17.1708 12.1033 17.1708 14.655V14.6503Z" fill="url(#paint7_linear_126_159286)"/>
<path d="M18.8763 14.65C18.8763 18.1335 16.2696 21.0794 12.8148 21.4975C12.669 21.5166 12.5161 21.5285 12.3656 21.5382C12.2438 21.5453 12.1172 21.5477 11.9762 21.5477C11.9141 21.5477 11.8543 21.5477 11.7946 21.5453C11.656 21.5453 11.5079 21.5357 11.3502 21.5214C11.1663 21.5047 10.9775 21.4808 10.7863 21.445C10.6359 21.4211 10.4853 21.3876 10.3348 21.3493L10.1699 21.3063V20.4056L10.4423 20.4773C10.5809 20.5132 10.7242 20.5466 10.8652 20.5729C11.042 20.6064 11.2188 20.6302 11.3908 20.6469C11.5247 20.6613 11.668 20.6708 11.8137 20.6756H11.9786C12.0956 20.6756 12.2127 20.6733 12.3417 20.6661C12.497 20.6565 12.6332 20.6422 12.7599 20.6255C15.7511 20.236 18.0066 17.67 18.0066 14.65C18.0066 11.6301 15.7511 9.0664 12.7622 8.67455C12.6308 8.6579 12.4947 8.64354 12.3417 8.63399C12.2127 8.62681 12.0933 8.622 11.9786 8.622H11.809C11.6871 8.62681 11.5509 8.63636 11.3908 8.65072C11.2188 8.66745 11.042 8.69128 10.8652 8.72473C10.7219 8.75101 10.5809 8.78447 10.4471 8.82037L10.1699 8.89675V7.9913L10.3348 7.9483C10.4853 7.91003 10.6359 7.87901 10.7888 7.85266C10.9775 7.81928 11.1663 7.79293 11.3526 7.7762C11.5055 7.76192 11.6584 7.75474 11.8041 7.75237C11.8567 7.74993 11.9164 7.74756 11.9786 7.74756C12.1172 7.74756 12.2438 7.75237 12.368 7.75955C12.5186 7.7691 12.669 7.78101 12.8172 7.80011C16.272 8.21823 18.8786 11.1641 18.8786 14.6476L18.8763 14.65Z" fill="url(#paint8_linear_126_159286)"/>
<path d="M20.5467 14.6503C20.5467 16.791 19.7487 18.841 18.3057 20.4251C16.8673 21.9971 14.9178 22.9767 12.8104 23.1798C12.6647 23.1941 12.5118 23.2037 12.3613 23.2108C12.237 23.2157 12.1056 23.2204 11.9766 23.2204C11.9145 23.2204 11.8548 23.2204 11.7951 23.2157C11.666 23.2157 11.5203 23.2085 11.3554 23.1966C11.1595 23.1822 10.9707 23.1631 10.794 23.1368C10.653 23.1177 10.5025 23.0938 10.3448 23.0627C10.1488 23.0245 9.95299 22.9791 9.75943 22.9265C9.59459 22.8835 9.44641 22.8382 9.31022 22.7952L9.16211 22.745V21.8179L9.45359 21.9207C9.59933 21.9733 9.73789 22.0163 9.87652 22.0545C10.0581 22.107 10.2468 22.1524 10.4332 22.1907C10.5932 22.2218 10.7271 22.2456 10.8561 22.2623C11.0305 22.2886 11.2073 22.3078 11.3865 22.3221C11.5322 22.334 11.6756 22.3412 11.8093 22.3436C11.8715 22.346 11.9264 22.346 11.979 22.346C12.1009 22.346 12.2227 22.3436 12.3446 22.3364C12.4998 22.3269 12.6408 22.3173 12.7699 22.3053C16.7073 21.9016 19.6747 18.6092 19.6747 14.6503C19.6747 10.6913 16.7048 7.39664 12.7674 6.99525C12.636 6.98331 12.4975 6.97136 12.3422 6.9642C12.2179 6.95942 12.0913 6.95464 11.9694 6.95702C11.9193 6.95702 11.8691 6.95702 11.819 6.95702C11.6756 6.95702 11.5346 6.96658 11.3888 6.97853C11.2073 6.99047 11.0305 7.01198 10.8584 7.03826C10.7271 7.05499 10.5861 7.08126 10.4308 7.11233C10.2468 7.15055 10.0605 7.19595 9.87889 7.24851C9.74033 7.28674 9.59933 7.33214 9.45596 7.38231L9.16448 7.48504V6.55803L9.31266 6.50785C9.44885 6.46246 9.59459 6.41945 9.7618 6.37645C9.95298 6.32388 10.1513 6.27849 10.3472 6.24026C10.5 6.20921 10.6506 6.18531 10.7963 6.16619C10.9684 6.13992 11.1547 6.1208 11.353 6.10647C11.5179 6.09452 11.666 6.08735 11.8022 6.08735C11.8548 6.08496 11.9145 6.08496 11.9742 6.08496C12.1033 6.08496 12.2323 6.08735 12.3589 6.09452C12.507 6.0993 12.6576 6.11124 12.8081 6.12558C14.913 6.32866 16.8649 7.30824 18.3009 8.88037C19.7464 10.462 20.542 12.5143 20.542 14.655L20.5467 14.6503Z" fill="url(#paint9_linear_126_159286)"/>
<defs>
<linearGradient id="paint0_linear_126_159286" x1="6.2141" y1="4.67821" x2="7.41317" y2="11.9818" gradientUnits="userSpaceOnUse">
<stop stop-color="#FA4F19"/>
<stop offset="0.463538" stop-color="#FF9000"/>
<stop offset="1" stop-color="white"/>
</linearGradient>
<linearGradient id="paint1_linear_126_159286" x1="7.17921" y1="6.50119" x2="7.92172" y2="10.3456" gradientUnits="userSpaceOnUse">
<stop stop-color="#FA4F19"/>
<stop offset="0.463538" stop-color="#FF9000"/>
<stop offset="1" stop-color="white"/>
</linearGradient>
<linearGradient id="paint2_linear_126_159286" x1="5.88037" y1="2.89608" x2="7.16904" y2="13.6704" gradientUnits="userSpaceOnUse">
<stop stop-color="#FA4F19"/>
<stop offset="0.463538" stop-color="#FF9000"/>
<stop offset="1" stop-color="white"/>
</linearGradient>
<linearGradient id="paint3_linear_126_159286" x1="5.29034" y1="1.03188" x2="6.86594" y2="15.3817" gradientUnits="userSpaceOnUse">
<stop stop-color="#FA4F19"/>
<stop offset="0.463538" stop-color="#FF9000"/>
<stop offset="1" stop-color="white"/>
</linearGradient>
<linearGradient id="paint4_linear_126_159286" x1="4.73828" y1="-0.798433" x2="6.59963" y2="17.0429" gradientUnits="userSpaceOnUse">
<stop stop-color="#FA4F19"/>
<stop offset="0.463538" stop-color="#FF9000"/>
<stop offset="1" stop-color="white"/>
</linearGradient>
<linearGradient id="paint5_linear_126_159286" x1="14.0753" y1="18.2149" x2="11.5292" y2="11.6985" gradientUnits="userSpaceOnUse">
<stop stop-color="#FA4F19"/>
<stop offset="0.463538" stop-color="#FF9000"/>
<stop offset="1" stop-color="white"/>
</linearGradient>
<linearGradient id="paint6_linear_126_159286" x1="13.2498" y1="16.5448" x2="11.7366" y2="13.2533" gradientUnits="userSpaceOnUse">
<stop stop-color="#FA4F19"/>
<stop offset="0.463538" stop-color="#FF9000"/>
<stop offset="1" stop-color="white"/>
</linearGradient>
<linearGradient id="paint7_linear_126_159286" x1="14.1616" y1="19.8444" x2="11.2856" y2="9.72767" gradientUnits="userSpaceOnUse">
<stop stop-color="#FA4F19"/>
<stop offset="0.463538" stop-color="#FF9000"/>
<stop offset="1" stop-color="white"/>
</linearGradient>
<linearGradient id="paint8_linear_126_159286" x1="14.5243" y1="21.5477" x2="10.969" y2="7.93738" gradientUnits="userSpaceOnUse">
<stop stop-color="#FA4F19"/>
<stop offset="0.463538" stop-color="#FF9000"/>
<stop offset="1" stop-color="white"/>
</linearGradient>
<linearGradient id="paint9_linear_126_159286" x1="14.8544" y1="23.2204" x2="10.6349" y2="6.2144" gradientUnits="userSpaceOnUse">
<stop stop-color="#FA4F19"/>
<stop offset="0.463538" stop-color="#FF9000"/>
<stop offset="1" stop-color="white"/>
</linearGradient>
</defs>
</svg>
