<svg width="32" height="32" viewBox="0 0 32 32" fill="none" xmlns="http://www.w3.org/2000/svg">
<rect width="32" height="32" rx="6" fill="white"/>
<path d="M24 17.0004C24 22.0004 20.5 24.5005 16.34 25.9505C16.1222 26.0243 15.8855 26.0207 15.67 25.9405C11.5 24.5005 8 22.0004 8 17.0004V10.0004C8 9.73523 8.10536 9.48088 8.29289 9.29334C8.48043 9.10581 8.73478 9.00045 9 9.00045C11 9.00045 13.5 7.80045 15.24 6.28045C15.4519 6.09945 15.7214 6 16 6C16.2786 6 16.5481 6.09945 16.76 6.28045C18.51 7.81045 21 9.00045 23 9.00045C23.2652 9.00045 23.5196 9.10581 23.7071 9.29334C23.8946 9.48088 24 9.73523 24 10.0004V17.0004Z" stroke="#FA4F19" stroke-width="1.5" stroke-linecap="round" stroke-linejoin="round"/>
<path d="M13 16L15 18L19 14" stroke="#FA4F19" stroke-width="1.5" stroke-linecap="round" stroke-linejoin="round"/>
</svg>
